<svg width="100%" height="100%" viewBox="0 0 24 24" fill="none" xmlns="http://www.w3.org/2000/svg">
<path d="M4.51752 0.941895L5.96188 2.85205L12.0688 8.95893L17.5927 3.43508L19.4781 0.941988L11.9971 6.00889L4.51752 0.941895ZM21.1978 2.79046L15.8744 6.39257L12.3793 9.88771L12.0703 10.1983L11.7597 9.88771L8.29386 6.42186L2.93404 2.79491L6.7236 8.39507L9.98872 11.6601L10.2978 11.9692L9.98872 12.2798L6.48186 15.7865L2.88571 21.1026L8.54586 17.2735L11.7642 14.0553L12.0732 13.7447L12.3838 14.0552L15.6445 17.3159L21.2474 21.1084L17.6205 15.7486L14.1547 12.2826L13.8456 11.9736L14.1547 11.6631L17.3684 8.44921L21.1977 2.79046H21.1978ZM1.0415 4.41655L6.10982 11.8975L1.0415 19.3769L3.54782 17.4814L9.05854 11.9707L2.94425 5.85641L1.0415 4.41655ZM23.102 4.56444L20.6073 6.44975L15.0849 11.9736L21.2007 18.0893L23.1005 19.5263L18.0337 12.0455L23.102 4.56439L23.102 4.56444ZM12.0733 14.9838L6.55653 20.5005L4.66546 23.0009L12.1465 17.9341L19.626 23.001L18.1874 21.0981L12.0732 14.9839L12.0733 14.9838Z" fill="currentColor"/>
</svg>
