<svg width="100%" height="100%" viewBox="0 0 14 14" fill="none" xmlns="http://www.w3.org/2000/svg">
<path d="M12.25 12.25V1.75M1.75 12.25V1.75M5.25 4.66667V9.33333C5.25 9.87693 5.25 10.1487 5.33881 10.3631C5.45722 10.649 5.68434 10.8761 5.9702 10.9945C6.1846 11.0833 6.4564 11.0833 7 11.0833C7.5436 11.0833 7.8154 11.0833 8.0298 10.9945C8.31566 10.8761 8.54278 10.649 8.66119 10.3631C8.75 10.1487 8.75 9.87693 8.75 9.33333V4.66667C8.75 4.12307 8.75 3.85127 8.66119 3.63687C8.54278 3.351 8.31566 3.12388 8.0298 3.00547C7.8154 2.91667 7.5436 2.91667 7 2.91667C6.4564 2.91667 6.1846 2.91667 5.9702 3.00547C5.68434 3.12388 5.45722 3.351 5.33881 3.63687C5.25 3.85127 5.25 4.12307 5.25 4.66667Z" stroke="currentColor" stroke-linecap="round" stroke-linejoin="round"/>
</svg>
